HIERARCHY
ROOT Hips
{
	OFFSET -21.947001 39.810204 44.525997
	CHANNELS 6 Xposition Yposition Zposition Zrotation Xrotation Yrotation
	JOINT Chest
	{
		OFFSET -0.201599 0.334099 6.453201
		CHANNELS 6 Xposition Yposition Zposition Zrotation Xrotation Yrotation
		JOINT Chest2
		{
			OFFSET 0.000000 0.000000 3.568001
			CHANNELS 6 Xposition Yposition Zposition Zrotation Xrotation Yrotation
			JOINT Neck
			{
				OFFSET 0.000000 0.000000 8.296402
				CHANNELS 6 Xposition Yposition Zposition Zrotation Xrotation Yrotation
				JOINT Head
				{
					OFFSET 0.000000 0.000000 2.173901
					CHANNELS 6 Xposition Yposition Zposition Zrotation Xrotation Yrotation
					End Site
					{
						OFFSET 0.000000 0.000000 7.891998
					}
				}
			}
			JOINT LeftCollar
			{
				OFFSET 1.927601 0.221401 6.049000
				CHANNELS 6 Xposition Yposition Zposition Zrotation Xrotation Yrotation
				JOINT LeftShoulder
				{
					OFFSET 4.959700 0.000000 0.000000
					CHANNELS 6 Xposition Yposition Zposition Zrotation Xrotation Yrotation
					JOINT LeftElbow
					{
						OFFSET 0.000000 0.000000 -8.654202
						CHANNELS 6 Xposition Yposition Zposition Zrotation Xrotation Yrotation
						JOINT LeftWrist
						{
							OFFSET 0.000000 0.000000 -13.864101
							CHANNELS 6 Xposition Yposition Zposition Zrotation Xrotation Yrotation
							End Site
							{
								OFFSET 0.000000 0.000000 -2.173901
							}
						}
					}
				}
			}
			JOINT RightCollar
			{
				OFFSET -3.155701 -0.764999 6.687801
				CHANNELS 6 Xposition Yposition Zposition Zrotation Xrotation Yrotation
				JOINT RightShoulder
				{
					OFFSET -3.592899 0.000000 0.000000
					CHANNELS 6 Xposition Yposition Zposition Zrotation Xrotation Yrotation
					JOINT RightElbow
					{
						OFFSET 0.000000 0.000000 -10.352398
						CHANNELS 6 Xposition Yposition Zposition Zrotation Xrotation Yrotation
						JOINT RightWrist
						{
							OFFSET 0.000000 0.000000 -12.750301
							CHANNELS 6 Xposition Yposition Zposition Zrotation Xrotation Yrotation
							End Site
							{
								OFFSET 0.000000 0.000000 -2.173901
							}
						}
					}
				}
			}
		}
	}
	JOINT LeftHip
	{
		OFFSET 2.460600 -0.518101 -2.735500
		CHANNELS 6 Xposition Yposition Zposition Zrotation Xrotation Yrotation
		JOINT LeftKnee
		{
			OFFSET 0.000000 -0.000004 -17.005899
			CHANNELS 6 Xposition Yposition Zposition Zrotation Xrotation Yrotation
			JOINT LeftAnkle
			{
				OFFSET 0.000000 0.000000 -19.194401
				CHANNELS 6 Xposition Yposition Zposition Zrotation Xrotation Yrotation
				End Site
				{
					OFFSET 0.000000 -8.134600 0.000000
				}
			}
		}
	}
	JOINT RightHip
	{
		OFFSET -3.115499 -0.679600 -2.320301
		CHANNELS 6 Xposition Yposition Zposition Zrotation Xrotation Yrotation
		JOINT RightKnee
		{
			OFFSET 0.000000 -0.000004 -17.680401
			CHANNELS 6 Xposition Yposition Zposition Zrotation Xrotation Yrotation
			JOINT RightAnkle
			{
				OFFSET 0.000000 0.000000 -16.993797
				CHANNELS 6 Xposition Yposition Zposition Zrotation Xrotation Yrotation
				End Site
				{
					OFFSET 0.000000 -8.842300 0.000000
				}
			}
		}
	}
}
MOTION
Frames: 10
Frame Time: 0.041667
-15.811499 37.240108 27.907793 2881.962148 15.300614 14.864037 -0.201597 0.334099 6.453199 -0.946013 15.394779 -3.574050 -0.000002 0.000001 3.567991 4.790474 -8.171833 0.141445 -0.000003 0.000000 8.296399 197.810802 -172.437264 152.060078 -0.000006 -0.000004 2.173900 -1.321317 0.664799 -4.056149 1.927598 0.221403 6.049002 -13.297342 -2.527169 -6.387907 4.959703 0.000004 0.000004 192.757173 179.125358 131.538829 -0.000003 -0.000001 -8.654201 74.727228 -18.420511 11.399057 0.000002 -0.000005 -13.864093 4078.711393 -157.007826 133.236459 -3.155704 -0.764998 6.687800 21.569720 -11.304501 -11.732750 -3.592906 -0.000001 0.000000 -10.434587 12.725549 43.693851 -0.000005 0.000004 -10.352389 -250.313346 -183.293290 -177.642196 0.000007 -0.000003 -12.750307 -88.179443 201.088351 -181.322152 2.460597 -0.518103 -2.735503 117.627482 -19.189463 99.429652 -0.000005 -0.000007 -17.005896 -22.342413 185.415689 -71.497949 -0.000005 -0.000001 -19.194405 273.869057 168.320832 251.037756 -3.115497 -0.679594 -2.320302 -90.938908 -43.927351 -78.661697 -0.000010 -0.000006 -17.680393 -398.247512 187.285126 -282.367834 0.000003 -0.000007 -16.993793 628.628755 19.014956 -405.599582
-15.977399 37.147301 28.327690 2881.570040 14.679466 15.085685 -0.201597 0.334091 6.453201 -0.488234 15.349933 -3.659151 0.000003 0.000001 3.567991 4.195359 -8.039237 -0.241991 0.000003 -0.000003 8.296392 195.767415 -173.264755 151.964319 -0.000003 0.000002 2.173898 -1.169592 0.531791 -4.664983 1.927599 0.221400 6.048996 -13.552691 -2.591511 -6.939807 4.959704 -0.000009 0.000001 193.138366 178.727486 132.270752 -0.000000 -0.000004 -8.654200 73.767477 -17.349997 10.645716 -0.000009 -0.000007 -13.864097 4079.713737 -157.789200 133.896201 -3.155702 -0.765007 6.687798 20.973158 -11.629270 -12.616108 -3.592902 -0.000001 0.000009 -12.060284 12.181241 45.242227 -0.000001 0.000003 -10.352400 -249.398593 -182.508815 -177.848946 0.000000 0.000004 -12.750307 -88.086498 201.206772 -181.825332 2.460599 -0.518111 -2.735500 117.611350 -19.466461 98.651209 -0.000005 0.000002 -17.005903 -22.652268 185.354969 -72.141045 -0.000004 -0.000003 -19.194399 274.171771 168.049414 251.497428 -3.115490 -0.679602 -2.320306 -88.609219 -44.333453 -76.101667 -0.000009 -0.000003 -17.680395 -399.615326 186.767220 -281.134903 0.000003 -0.000007 -16.993793 629.054576 18.827481 -405.397436
-16.148298 37.054504 28.757896 2881.204598 14.060140 15.165243 -0.201597 0.334103 6.453209 -0.087287 15.301741 -3.621590 0.000000 -0.000001 3.567995 3.491604 -7.920848 -0.397784 0.000003 0.000001 8.296398 193.839170 -173.999902 151.700318 -0.000003 -0.000000 2.173906 -1.215725 0.502422 -5.143482 1.927601 0.221398 6.048999 -13.681842 -2.630149 -7.091295 4.959700 0.000000 -0.000001 193.453401 178.410197 132.364968 0.000000 -0.000005 -8.654196 73.082915 -16.261415 10.019114 -0.000005 0.000002 -13.864094 4080.519372 -158.726015 134.573182 -3.155704 -0.765001 6.687796 20.427919 -11.995239 -12.799619 -3.592900 0.000002 0.000007 -13.340838 11.789633 45.848946 0.000002 0.000009 -10.352400 -248.513100 -181.647433 -178.010904 -0.000003 -0.000006 -12.750307 -88.423458 201.371435 -182.481276 2.460598 -0.518099 -2.735497 117.580969 -19.688766 97.815180 -0.000001 -0.000007 -17.005909 -22.885297 185.248596 -72.768747 -0.000004 0.000002 -19.194401 274.252203 167.693999 251.917703 -3.115496 -0.679597 -2.320296 -86.113195 -44.780759 -73.465788 -0.000008 -0.000008 -17.680393 -400.934099 186.187187 -279.862630 -0.000003 -0.000003 -16.993792 629.481927 18.641811 -405.119857
-16.323200 36.962105 29.196894 2880.915216 13.462090 15.392581 -0.201595 0.334102 6.453201 0.286655 15.248128 -3.768059 0.000002 0.000002 3.567996 2.832006 -7.795411 -0.543023 -0.000001 -0.000003 8.296397 191.941143 -174.742399 151.499934 0.000001 0.000002 2.173908 -1.407601 0.523506 -5.363138 1.927598 0.221400 6.048997 -13.824622 -2.639660 -7.273550 4.959698 -0.000002 0.000006 193.739532 178.152384 132.472298 -0.000001 -0.000004 -8.654195 72.244243 -15.123251 9.356705 -0.000003 -0.000002 -13.864099 4081.554064 -159.765064 135.211340 -3.155703 -0.765004 6.687800 19.868522 -12.361544 -13.017842 -3.592897 0.000004 0.000008 -14.461462 11.450098 46.476497 -0.000008 0.000002 -10.352395 -247.605832 -180.691247 -178.126593 0.000003 0.000000 -12.750303 -87.874502 201.283148 -182.692274 2.460600 -0.518099 -2.735500 117.533813 -20.089618 97.067602 -0.000000 0.000001 -17.005899 -23.072316 185.107101 -73.387254 -0.000005 -0.000001 -19.194405 274.274879 167.367065 252.258666 -3.115494 -0.679593 -2.320302 -83.541041 -44.949707 -70.795177 -0.000005 -0.000012 -17.680395 -402.189214 185.561049 -278.541835 -0.000004 -0.000003 -16.993793 629.903432 18.460774 -404.802417
-16.502598 36.871109 29.643593 2880.662117 12.866069 15.582691 -0.201600 0.334099 6.453198 0.618923 15.200805 -3.882205 0.000002 -0.000001 3.567996 2.203009 -7.672744 -0.682988 0.000001 -0.000001 8.296400 190.069548 -175.496930 151.358276 0.000005 -0.000001 2.173905 -1.488193 0.525504 -5.630335 1.927598 0.221404 6.049000 -13.993021 -2.607657 -7.443716 4.959702 0.000000 -0.000001 193.981662 177.935321 132.539930 -0.000001 0.000008 -8.654204 71.507798 -13.911711 8.723019 0.000000 0.000003 -13.864098 4082.560342 -160.867621 135.792698 -3.155704 -0.764997 6.687799 19.354480 -12.669395 -13.313348 -3.592899 0.000005 0.000004 -15.432396 11.117011 47.138906 -0.000003 0.000003 -10.352397 -246.722989 -179.616449 -178.221970 -0.000003 -0.000000 -12.750302 -87.923365 202.081050 -182.593687 2.460597 -0.518105 -2.735507 117.468804 -20.508005 96.308044 -0.000004 0.000001 -17.005898 -23.208037 184.937084 -73.987287 -0.000002 -0.000000 -19.194403 274.243898 167.075675 252.535262 -3.115493 -0.679597 -2.320302 -80.860882 -45.029156 -68.093031 -0.000006 -0.000007 -17.680397 -403.376820 184.892306 -277.175415 0.000008 -0.000008 -16.993799 630.335974 18.287717 -404.443914
-16.685600 36.781509 30.095688 2880.443769 12.260768 15.736384 -0.201600 0.334099 6.453200 0.916880 15.184919 -3.966737 0.000000 -0.000005 3.568005 1.608153 -7.554867 -0.816079 -0.000000 -0.000002 8.296387 188.234331 -176.240136 151.275262 -0.000002 -0.000003 2.173898 -1.544090 0.523418 -5.909031 1.927599 0.221404 6.048993 -14.156370 -2.572592 -7.659761 4.959703 -0.000000 0.000001 194.127678 177.689243 132.644623 -0.000001 -0.000001 -8.654202 70.485175 -12.762667 7.981700 0.000000 -0.000001 -13.864095 4084.048339 -161.904880 136.337201 -3.155703 -0.765002 6.687789 17.994962 -12.861161 -13.795621 -3.592898 -0.000005 0.000000 -15.385378 10.952055 47.788655 -0.000004 0.000002 -10.352400 -245.955658 -178.527280 -178.154119 0.000002 -0.000002 -12.750301 -88.102958 203.029695 -183.587862 2.460595 -0.518105 -2.735498 117.377060 -20.942588 95.521056 -0.000002 -0.000003 -17.005899 -23.307781 184.714803 -74.571029 -0.000007 -0.000001 -19.194401 274.141117 166.809653 252.738118 -3.115502 -0.679598 -2.320306 -78.064179 -45.027711 -65.347630 -0.000006 -0.000007 -17.680391 -404.506889 184.217333 -275.753998 0.000006 -0.000003 -16.993797 630.778953 18.116513 -404.108525
-16.871899 36.693810 30.552298 2880.251431 11.647840 15.854682 -0.201598 0.334095 6.453204 1.186949 15.184153 -4.024839 0.000001 -0.000001 3.568000 1.046940 -7.435901 -0.941484 0.000006 -0.000006 8.296400 186.386328 -177.010103 151.277885 0.000000 -0.000007 2.173907 -1.516573 0.514594 -6.215754 1.927606 0.221394 6.049004 -14.787180 -2.344668 -7.852358 4.959702 -0.000005 0.000002 194.649600 177.534034 132.732063 0.000001 0.000000 -8.654197 69.488644 -11.648564 7.245257 -0.000002 -0.000000 -13.864097 4085.666165 -163.117622 136.852566 -3.155702 -0.765002 6.687801 17.485534 -13.204787 -14.165206 -3.592897 0.000004 0.000001 -16.021095 10.791745 48.459560 -0.000003 -0.000001 -10.352400 -245.210840 -177.249870 -178.133820 0.000003 -0.000003 -12.750299 -88.694972 203.941116 -184.844535 2.460603 -0.518113 -2.735504 117.263215 -21.389490 94.713509 0.000000 0.000001 -17.005899 -23.368731 184.450324 -75.132067 -0.000004 -0.000002 -19.194405 274.160651 166.697597 252.822348 -3.115496 -0.679603 -2.320305 -75.199310 -44.918524 -62.599415 -0.000010 -0.000010 -17.680391 -405.572699 183.543575 -274.285753 0.000003 -0.000003 -16.993793 631.201714 17.963479 -403.742071
-17.060802 36.607307 31.011690 2880.075485 11.022112 15.939621 -0.201599 0.334100 6.453199 1.435343 15.210247 -4.031393 0.000002 -0.000003 3.568000 0.507556 -7.332677 -1.065175 -0.000001 -0.000002 8.296395 184.564170 -177.812227 151.335805 -0.000000 0.000003 2.173905 -1.422734 0.493547 -6.538061 1.927601 0.221403 6.049003 -14.378274 -2.526818 -8.100394 4.959703 -0.000001 0.000005 194.003273 177.051153 132.843232 0.000002 -0.000001 -8.654200 68.761324 -10.499120 6.593979 -0.000004 -0.000004 -13.864091 4087.131869 -164.309339 137.360541 -3.155704 -0.764999 6.687797 16.876573 -13.583485 -14.667690 -3.592907 0.000004 -0.000004 -16.370589 10.755878 49.192826 -0.000002 0.000003 -10.352397 -244.574102 -175.955413 -178.005959 0.000004 -0.000002 -12.750303 -89.670098 204.905634 -186.261171 2.460594 -0.518104 -2.735500 117.143850 -21.833362 93.885554 -0.000003 -0.000007 -17.005894 -23.403488 184.174398 -75.673995 -0.000006 -0.000001 -19.194399 274.005688 166.533030 252.963651 -3.115497 -0.679601 -2.320305 -72.295701 -44.701221 -59.868118 -0.000012 -0.000003 -17.680397 -406.584632 182.893710 -272.777866 0.000001 -0.000006 -16.993797 631.658080 17.775217 -403.695571
-17.252100 36.521404 31.472897 2879.892327 10.378373 15.851670 -0.201600 0.334107 6.453207 1.647480 15.254345 -3.850655 0.000003 0.000000 3.567998 -0.077168 -7.250389 -1.034279 0.000001 -0.000004 8.296399 182.832498 -178.637915 151.298116 0.000000 0.000001 2.173897 -1.264703 0.491355 -6.867119 1.927601 0.221399 6.048998 -14.588019 -2.344405 -8.471434 4.959702 -0.000004 -0.000002 193.962086 176.710053 132.967514 0.000002 0.000003 -8.654198 67.998160 -9.417334 5.900751 -0.000005 -0.000002 -13.864099 4088.753629 -165.537530 137.722309 -3.155704 -0.765004 6.687791 16.297487 -13.976325 -15.428612 -3.592897 0.000006 -0.000002 -16.641319 10.678536 49.973694 -0.000005 0.000001 -10.352405 -244.207704 -174.506784 -177.914161 -0.000005 -0.000002 -12.750294 -90.701238 205.729997 -187.901127 2.460596 -0.518105 -2.735499 117.244814 -22.125773 92.543585 -0.000003 0.000004 -17.005907 -23.398502 184.050048 -76.688606 -0.000002 -0.000005 -19.194407 273.965718 166.455030 253.138285 -3.115496 -0.679595 -2.320305 -69.315342 -44.516533 -57.108103 -0.000005 -0.000006 -17.680397 -407.554874 182.235567 -271.248996 0.000007 -0.000002 -16.993797 632.044778 17.679152 -403.346822
-17.444498 36.435303 31.934792 2879.728621 9.728746 15.861137 -0.201597 0.334098 6.453206 1.870326 15.305487 -3.768992 -0.000001 -0.000002 3.568001 -0.615996 -7.123959 -1.327003 0.000001 0.000003 8.296403 181.144991 -179.422799 151.631962 -0.000003 -0.000001 2.173906 -1.083277 0.497534 -7.197747 1.927598 0.221408 6.049003 -14.686918 -2.339901 -8.585410 4.959701 -0.000004 0.000002 193.762659 176.303725 133.160562 -0.000005 0.000003 -8.654205 67.175908 -8.399423 5.252814 0.000007 0.000001 -13.864099 4090.499098 -166.793752 138.035132 -3.155701 -0.764995 6.687801 15.722190 -14.335840 -15.788868 -3.592901 -0.000001 0.000001 -16.776683 10.630023 50.651727 -0.000003 0.000001 -10.352397 -243.712406 -173.076256 -177.684503 0.000003 0.000002 -12.750295 -90.829754 206.335097 -187.234514 2.460601 -0.518108 -2.735503 117.646470 -22.375167 90.843394 -0.000001 -0.000005 -17.005899 -23.492347 184.158388 -78.217551 -0.000009 -0.000001 -19.194401 274.079154 166.449552 253.341825 -3.115491 -0.679592 -2.320297 -66.378784 -44.122592 -54.439610 -0.000010 -0.000001 -17.680391 -408.526564 181.551482 -269.695484 0.000004 -0.000000 -16.993793 632.428471 17.614260 -402.992472
